<svg width="61" height="79" viewBox="0 0 61 79" fill="none" xmlns="http://www.w3.org/2000/svg">
<path fill-rule="evenodd" clip-rule="evenodd" d="M14.0838 0.386597C11.169 1.56623 8.93956 4.97543 8.93956 8.25311C8.93956 10.7779 10.3917 13.5748 12.4991 15.1084C13.8418 16.0856 14.4434 16.2679 16.6975 16.383C19.8593 16.5441 21.5708 15.8233 23.5419 13.5006C26.9837 9.44516 25.6566 3.21164 20.8166 0.700408C19.3627 -0.0536205 15.6047 -0.228974 14.0838 0.386597ZM42.6717 7.8571C37.4583 9.49704 35.8562 16.2563 39.7069 20.3661C41.4506 22.2271 44.7667 23.0827 47.1555 22.2874C48.8648 21.7186 51.2772 19.5504 51.9176 18.0073C52.5805 16.4101 52.5323 13.3728 51.8216 11.9495C50.8194 9.94273 49.0999 8.42043 47.1881 7.84797C45.0529 7.20828 44.7316 7.20902 42.6717 7.8571ZM8.57735 19.0192C6.34609 19.2954 4.76176 20.2197 3.67149 21.8811C2.84853 23.1357 2.62396 24.3368 1.50616 33.4703C0.820121 39.0744 0.259774 44.3171 0.260499 45.1208C0.263396 47.6851 1.97378 50.4082 4.46438 51.8139C4.89868 52.0591 5.33334 54.7468 6.43121 63.9683C7.20599 70.4802 7.84313 76.0009 7.84676 76.2366C7.85002 76.4726 8.27489 77.1711 8.79069 77.7892L9.72847 78.9133H16.0122H22.2959L22.1474 77.726C22.0659 77.0728 21.9011 75.4361 21.7809 74.0888C21.6055 72.1172 21.4284 71.5959 20.875 71.4183C19.7271 71.0512 18.7194 69.4295 18.7194 67.9499C18.7194 66.7232 19.6014 64.4162 22.0384 59.2673C23.1718 56.8726 23.9491 56.6285 30.4458 56.6285C35.879 56.6285 36.0826 56.6563 37.1146 57.532C38.3378 58.5699 41.902 66.2658 41.8998 67.8637C41.898 69.1431 40.7201 71.1067 39.7725 71.4099C39.0039 71.6561 38.8057 72.5205 38.533 76.8214L38.399 78.9308L44.1865 78.8307C51.4855 78.7043 51.095 79.0744 51.9669 71.4611L52.5866 66.0473L54.8505 65.1351C56.3366 64.5363 57.1158 64.0168 57.1187 63.6223C57.1208 63.292 56.8488 61.1706 56.5141 58.9085L55.9052 54.795L57.4624 53.4506C59.2485 51.9089 60.0121 50.3457 60.0121 48.2316C60.0121 45.138 57.8348 29.1482 57.2418 27.8882C56.91 27.1835 55.9835 26.1693 55.1826 25.6348L53.7262 24.6627H45.0065C36.5549 24.6627 36.246 24.6883 34.9561 25.4971C34.2244 25.9563 33.2899 26.8605 32.8795 27.5064L32.1337 28.6813L32.1276 27.5119C32.1094 24.0724 30.6059 20.9251 28.3591 19.6256C27.5278 19.1449 11.5251 18.6542 8.57735 19.0192ZM33.2048 42.3279C38.3718 45.123 37.7937 52.6089 32.2688 54.4479C28.1859 55.8069 23.7926 52.6421 23.7912 48.3412C23.7897 44.4629 26.4915 41.6981 30.3161 41.6645C31.2427 41.6565 32.4948 41.944 33.2048 42.3279Z" fill="#E8899E"/>
</svg>
