<svg width="94" height="78" viewBox="0 0 94 78" fill="none" xmlns="http://www.w3.org/2000/svg">
<path fill-rule="evenodd" clip-rule="evenodd" d="M6.89232 0.27861C6.81605 0.321412 6.58725 0.384274 6.38387 0.418201C4.93924 0.659758 3.09322 1.88113 2.15019 3.21927C1.35545 4.347 1.02071 5.15293 0.737552 6.62011C0.586682 7.40173 0.580673 8.83258 0.638913 30.2397C0.703347 53.9085 0.692531 53.2715 1.05436 54.6794C1.10502 54.8763 1.19127 55.0822 1.246 55.137C1.30082 55.1918 1.34565 55.2938 1.34565 55.3637C1.34565 55.4336 1.53636 55.7894 1.76942 56.1541C2.1036 56.6773 4.26643 58.8935 12.0076 66.6448C17.4056 72.05 22.0093 76.6113 22.2381 76.7813C22.4669 76.9514 22.9838 77.261 23.3868 77.4695L24.1195 77.8485H56.2114H88.3033L89.036 77.4707C90.2574 76.841 91.0332 76.1879 91.824 75.1234C92.2359 74.5691 92.7071 73.6604 92.8237 73.1957C92.858 73.059 92.9231 72.9244 92.9683 72.8965C93.0791 72.828 93.0774 24.1659 92.9666 24.0974C92.9204 24.0689 92.8083 23.8064 92.7173 23.5141C92.4657 22.7058 91.7981 21.6737 91.0222 20.8934C90.0462 19.912 89.2899 19.4516 87.9134 19.0007L87.0878 18.7303H56.1652H25.2425L24.4155 19.0012C23.2462 19.3842 22.2615 19.9666 21.3743 20.8001C20.765 21.3725 19.8139 22.8293 19.6117 23.5002C19.2008 24.8624 19.1907 24.9586 19.189 27.4894C19.1882 28.8495 19.1561 29.9623 19.1179 29.9623C19.0796 29.9623 15.71 26.6238 11.6299 22.5435L4.21143 15.1245L4.21152 11.427C4.21161 7.37492 4.26126 6.83893 4.72366 5.89646C5.02041 5.29169 5.87228 4.43926 6.4141 4.20491C7.38902 3.78327 5.86665 3.80278 37.7622 3.80167C59.5798 3.80083 67.937 3.82885 68.1764 3.90336C69.1959 4.22081 69.9414 4.76226 70.446 5.55145C71.0678 6.52425 71.1412 6.93794 71.1412 9.47082V11.6623L72.9207 11.6373L74.7003 11.6121V9.11611C74.7003 6.47017 74.6679 6.192 74.217 4.95611C73.5034 3.00101 71.5192 1.11662 69.6159 0.586542C69.4125 0.529967 69.0302 0.418756 68.7665 0.339439C68.3361 0.210016 65.1441 0.195503 37.6589 0.197999C20.8135 0.19957 6.96858 0.235808 6.89232 0.27861ZM17.9394 7.07716C17.2504 7.20048 17.1082 7.24365 16.599 7.4841C15.5819 7.96444 14.5805 8.9143 14.0831 9.87027C13.4441 11.0986 13.4559 10.9688 13.4559 16.8014V22.0546L14.2628 22.8654C14.7066 23.3113 15.121 23.6761 15.1836 23.6761C15.2722 23.6761 15.3033 22.3235 15.3242 17.5517L15.351 11.4272L15.6457 10.8726C16.2158 9.79955 16.9799 9.21013 18.2168 8.88944C18.4493 8.82916 20.4404 8.79246 23.5785 8.79061L28.5705 8.78766L32.0834 12.3332C34.0155 14.2832 35.7131 15.9277 35.8558 15.9876C36.0522 16.0701 40.7749 16.0962 55.2764 16.0952C65.815 16.0946 74.5798 16.1191 74.7537 16.1499C75.1656 16.223 75.6236 16.4286 76.1036 16.7564C76.4709 17.0071 76.5405 17.0201 77.5079 17.0201C78.0989 17.0201 78.5502 16.9806 78.584 16.926C78.7644 16.6341 77.3735 15.2248 76.4917 14.8062C75.1072 14.1488 77.095 14.2108 55.6803 14.1568L36.3829 14.1081L32.823 10.549L29.263 6.98989L23.9248 6.97565C19.9995 6.96521 18.4152 6.99202 17.9394 7.07716ZM19.1412 11.6328C18.5482 12.0193 18.263 12.5126 18.263 13.1517C18.263 13.8899 18.6672 14.5004 19.3584 14.8062C19.7416 14.9758 19.9944 14.9861 23.6596 14.9809C27.4802 14.9755 27.5615 14.9715 27.9694 14.7718C28.4884 14.5175 28.9865 13.7517 28.9865 13.2079C28.9865 12.5493 28.5412 11.8196 27.9512 11.5114C27.7468 11.4047 26.9596 11.382 23.6063 11.3865L19.511 11.3919L19.1412 11.6328ZM11.7686 27.859L19.1874 35.2774V51.8791C19.1874 61.0101 19.1668 68.5015 19.1416 68.5266C19.1164 68.5519 15.8975 65.3775 11.9885 61.4725C4.5544 54.046 4.60311 54.0998 4.39585 53.0946C4.30415 52.6498 4.21318 20.4405 4.30369 20.4405C4.32892 20.4405 7.68817 23.7788 11.7686 27.859ZM87.3652 22.6569C88.4329 23.187 89.3063 24.2582 89.4775 25.2477C89.5563 25.7027 89.5739 71.3624 89.4955 71.701C89.1911 73.0144 87.9335 74.2407 86.6006 74.5237C86.3118 74.585 75.8906 74.6081 55.8879 74.5916L25.6123 74.5667L25.0576 74.2932C24.322 73.9305 23.4919 73.0754 23.1244 72.3019L22.839 71.701L22.8129 48.6361C22.793 31.0269 22.8129 25.4729 22.8968 25.1552C23.2655 23.7612 24.5191 22.6061 25.9359 22.3548C26.063 22.3322 39.791 22.3187 56.4425 22.3248L86.7181 22.3357L87.3652 22.6569ZM51.2961 32.8089C51.135 32.8957 50.9169 33.0769 50.8116 33.2114C50.6246 33.4504 50.6197 33.5618 50.5962 38.1109L50.5723 42.7659L45.9501 42.8121C40.758 42.8641 40.903 42.8443 40.543 43.5499C40.3644 43.9 40.3572 44.0891 40.3572 48.4512C40.3572 52.7611 40.3662 53.0059 40.5367 53.3403C40.9106 54.0731 40.6623 54.0385 45.9039 54.0903L50.5723 54.1365L50.5962 58.7919C50.6196 63.3314 50.625 63.454 50.8116 63.716C51.2059 64.2697 51.1018 64.2592 56.1652 64.2592C61.2729 64.2592 61.1075 64.2771 61.5684 63.6728L61.8043 63.3635V58.8731C61.8043 56.4035 61.8295 54.317 61.8604 54.2366C61.9105 54.1059 62.4009 54.0903 66.4456 54.0903C71.3881 54.0903 71.3454 54.0947 71.7421 53.5557C71.9214 53.312 71.927 53.1592 71.927 48.4356V43.5665L71.6958 43.3195C71.5687 43.1836 71.3815 43.0243 71.2798 42.9654C71.1496 42.8899 69.7302 42.8446 66.4727 42.8121L61.8505 42.7659L61.8043 38.1272C61.7594 33.6188 61.7527 33.4813 61.5666 33.2276C61.1313 32.6345 61.2117 32.6431 56.1652 32.6472C52.0303 32.6506 51.5609 32.6661 51.2961 32.8089Z" fill="#1EC760"/>
</svg>
