<svg width="64" height="79" viewBox="0 0 64 79" fill="none" xmlns="http://www.w3.org/2000/svg">
<path fill-rule="evenodd" clip-rule="evenodd" d="M29.1824 0.422067C28.6429 0.639446 27.6296 1.78905 26.9311 2.97674C25.3722 5.62616 23.3363 6.93137 20.7594 6.93369C17.4738 6.93694 17.3404 7.09069 17.3404 10.8837C17.3404 13.541 17.499 14.3283 18.0781 14.5499C18.4838 14.705 24.8667 14.8318 32.2624 14.8318C39.6581 14.8318 46.041 14.705 46.4467 14.5499C47.0259 14.3283 47.1844 13.541 47.1844 10.8837C47.1844 7.10694 47.0398 6.93555 43.8591 6.93555C41.2506 6.93555 39.6059 5.93272 37.9188 3.31349C37.1149 2.06635 35.9234 0.803409 35.2706 0.507067C33.9066 -0.112092 30.6233 -0.157611 29.1824 0.422067ZM7.74467 9.45213C5.62062 10.3737 2.96777 12.8619 1.80805 15.0199C0.797088 16.9025 0.784963 17.1867 0.654395 42.6461C0.502844 72.2473 0.472533 71.9594 4.1107 75.4811C7.64208 78.9002 7.89343 78.9308 32.2624 78.9308C56.6561 78.9308 57.0497 78.883 60.4575 75.4885C63.8289 72.1303 63.7385 73.0147 63.7385 43.3977C63.7385 16.9522 63.7371 16.9197 62.7051 14.9976C60.5694 11.0202 56.6953 8.79349 51.91 8.79349H49.516V11.1159V13.4383L51.4978 13.4393C54.0676 13.4402 56.4547 14.6604 57.7949 16.6591L58.8646 18.2537L58.7368 44.0637C58.6132 69.0373 58.5787 69.9142 57.6764 71.1354C55.6829 73.8326 55.7911 73.8215 32.0139 73.8215C10.702 73.8215 10.1877 73.8001 8.64092 72.8475C5.59077 70.97 5.68264 71.8725 5.68264 43.7219V18.2207L6.74116 16.6424C8.07108 14.6595 10.4637 13.4402 13.027 13.4393L15.0089 13.4383V11.1159V8.79349L12.0944 8.81161C10.4917 8.82183 8.53413 9.10981 7.74467 9.45213ZM41.2692 25.266C39.6726 25.9576 38.3245 28.0413 38.3245 29.8175C38.3245 30.4209 38.954 32.7698 39.7234 35.0369C40.4928 37.3041 41.1223 39.5619 41.1223 40.0538C41.1223 41.4742 42.9955 44.4135 44.2695 44.9913C45.3257 45.4707 45.4049 45.7011 45.1289 47.4777C44.3795 52.2958 40.6061 57.211 35.9929 59.3788C33.8586 60.3816 32.7618 60.5836 29.4548 60.5836C25.9038 60.5836 25.1498 60.4211 22.3631 59.0546C16.8601 56.3559 13.9597 51.8959 13.6911 45.7201C13.5628 42.7757 13.7368 41.4543 14.5272 39.3557C15.8165 35.9352 19.0145 32.4065 22.2586 30.8254C24.9497 29.5142 25.0444 29.399 24.3398 28.3019C23.9551 27.7036 23.5279 27.7937 21.3111 28.9419C10.6675 34.454 8.07855 48.2097 16.0497 56.8975C22.8881 64.3506 34.3426 64.8462 41.7868 58.0113C44.3641 55.6452 46.7722 50.992 47.0818 47.7796C47.2707 45.8218 47.5108 45.3434 48.5815 44.7921C49.7822 44.1738 51.3812 41.6377 51.3812 40.3525C51.3812 40.032 52.1054 37.5386 52.9905 34.8117C53.9664 31.8041 54.4915 29.4115 54.325 28.7292C53.9594 27.2336 52.5372 25.7198 50.838 25.0189C49.6722 24.5377 49.3374 24.5646 48.7092 25.1903C47.6787 26.2173 48.7409 27.5508 50.2826 27.1653C51.1341 26.9526 51.5001 27.1834 52.0788 28.2982C52.7606 29.6117 52.7312 29.9123 51.6022 33.1702C50.9405 35.0797 49.779 38.0055 49.0203 39.6716C47.8951 42.144 47.4413 42.7009 46.5525 42.7009C45.3597 42.7009 43.9202 41.3981 43.9202 40.3186C43.9202 39.9428 43.7118 39.4277 43.4567 39.1736C42.8267 38.5461 40.1897 30.6958 40.1897 29.4478C40.1897 28.1142 41.6176 26.8815 42.8043 27.1904C43.9431 27.4872 44.9857 26.4003 44.5777 25.3417C44.2261 24.429 43.252 24.4067 41.2692 25.266ZM26.0395 26.3645C24.4004 28.1686 25.5028 30.3544 27.9122 30.0772C28.8574 29.9685 29.3419 29.5644 29.6795 28.6015C30.0801 27.4616 29.9919 27.1523 29.0537 26.3952C27.6879 25.2939 27.0183 25.2869 26.0395 26.3645ZM31.3401 42.9183C29.1656 45.0982 27.161 46.8813 26.8849 46.8813C26.6089 46.8813 25.6716 46.1497 24.8014 45.2556C23.084 43.4906 21.81 43.1803 21.3358 44.4112C21.1232 44.9644 21.8226 45.9853 23.7317 47.9069C25.215 49.4002 26.6835 50.5638 26.9954 50.4932C27.3074 50.4226 29.7854 48.2999 32.5016 45.7763C36.2042 42.3368 37.4058 40.941 37.3 40.2025C37.0006 38.1141 35.4091 38.8392 31.3401 42.9183Z" fill="#31B8FF"/>
</svg>
