<?xml version="1.0" standalone="no"?>
<!DOCTYPE svg PUBLIC "-//W3C//DTD SVG 20010904//EN"
 "http://www.w3.org/TR/2001/REC-SVG-20010904/DTD/svg10.dtd">
<svg version="1.0" xmlns="http://www.w3.org/2000/svg"
 width="512.000000pt" height="512.000000pt" viewBox="0 0 512.000000 512.000000"
 preserveAspectRatio="xMidYMid meet">

<g transform="translate(0.000000,512.000000) scale(0.100000,-0.100000)"
fill="#000000" stroke="none">
<path d="M1474 4949 c-141 -24 -266 -91 -379 -204 -91 -91 -143 -174 -183
-290 l-27 -80 0 -1815 0 -1815 27 -80 c40 -116 92 -199 183 -290 91 -91 174
-143 290 -183 l80 -27 1095 0 1095 0 80 27 c116 40 199 92 290 183 91 91 143
174 183 290 l27 80 0 1815 0 1815 -27 80 c-40 116 -92 199 -183 290 -91 91
-174 143 -290 183 l-80 27 -1065 1 c-586 1 -1088 -2 -1116 -7z m2227 -180 c97
-38 149 -71 217 -139 62 -63 107 -137 138 -230 18 -53 19 -122 19 -1840 l0
-1785 -23 -67 c-60 -173 -193 -304 -372 -364 -52 -18 -107 -19 -1120 -19
-1013 0 -1068 1 -1120 19 -201 68 -355 238 -389 430 -15 83 -15 3489 0 3572
17 98 78 210 154 286 73 74 192 140 280 157 30 5 475 8 1100 8 l1050 -2 66
-26z"/>
<path d="M1506 4629 c-62 -15 -153 -68 -197 -116 -22 -24 -55 -74 -72 -111
l-32 -67 0 -1536 0 -1535 37 -76 c45 -91 103 -147 196 -191 67 -32 67 -32 232
-32 142 0 170 3 200 19 62 32 91 69 142 176 43 89 62 116 127 181 242 238 603
238 842 0 64 -64 84 -93 127 -181 51 -107 81 -144 142 -176 30 -16 58 -19 200
-19 165 0 165 0 232 32 93 44 151 100 196 191 l37 76 0 1536 0 1536 -37 76
c-45 91 -103 147 -196 191 l-67 32 -1035 2 c-604 1 -1051 -3 -1074 -8z m2088
-161 c55 -16 138 -99 154 -154 17 -60 17 -2968 0 -3028 -16 -55 -99 -138 -154
-154 -51 -15 -245 -16 -277 -1 -15 7 -37 40 -64 97 -102 215 -282 369 -503
428 -90 25 -291 25 -380 0 -221 -59 -395 -206 -498 -418 -31 -63 -55 -101 -70
-108 -32 -14 -225 -13 -276 2 -55 16 -138 99 -154 154 -17 60 -17 2968 0 3028
15 51 99 137 148 153 53 16 2018 17 2074 1z"/>
<path d="M1545 4295 c-16 -15 -25 -36 -25 -55 0 -19 9 -40 25 -55 24 -24 28
-25 181 -25 l157 0 68 -65 c56 -54 73 -65 101 -65 45 0 78 34 78 80 0 29 -12
46 -88 122 l-88 88 -193 0 c-190 0 -192 0 -216 -25z"/>
<path d="M2485 4311 c-92 -24 -173 -90 -215 -176 -25 -49 -25 -54 -25 -295 0
-234 1 -247 23 -290 35 -72 75 -114 144 -151 58 -31 70 -34 148 -33 72 0 93 4
136 26 75 39 107 70 145 140 l34 63 0 245 0 245 -34 63 c-57 105 -144 160
-260 167 -36 2 -79 1 -96 -4z m163 -178 c14 -10 35 -32 46 -47 20 -26 21 -41
21 -246 0 -241 -1 -243 -69 -294 -39 -29 -133 -29 -172 0 -67 49 -69 57 -72
267 -2 106 -1 206 3 224 7 40 49 91 90 109 40 19 120 12 153 -13z"/>
<path d="M1545 3975 c-16 -15 -25 -36 -25 -55 0 -19 9 -40 25 -55 23 -24 31
-25 135 -25 104 0 112 1 135 25 16 15 25 36 25 55 0 19 -9 40 -25 55 -23 24
-31 25 -135 25 -104 0 -112 -1 -135 -25z"/>
<path d="M3098 3750 c-71 -21 -124 -88 -113 -141 13 -60 82 -77 134 -33 31 26
61 27 61 2 -1 -7 -50 -71 -110 -141 -121 -141 -132 -166 -85 -212 23 -24 28
-25 175 -25 147 0 152 1 175 25 16 15 25 36 25 55 0 48 -38 80 -96 80 l-47 0
27 33 c15 17 40 49 55 70 109 142 -29 339 -201 287z"/>
<path d="M2182 3104 c-192 -51 -312 -218 -312 -433 0 -141 49 -299 130 -416
82 -119 234 -253 404 -356 84 -51 93 -54 155 -54 61 0 72 4 150 49 163 96 329
241 411 361 114 166 160 404 110 567 -51 164 -197 280 -371 295 -83 7 -155 -9
-237 -53 l-62 -34 -55 31 c-102 58 -214 73 -323 43z m223 -172 c22 -11 51 -32
65 -47 35 -37 78 -58 106 -51 14 4 41 23 62 42 134 128 327 103 419 -54 22
-37 28 -61 31 -131 11 -243 -132 -455 -436 -643 -42 -27 -82 -48 -90 -48 -24
0 -177 97 -259 165 -188 153 -281 335 -271 531 3 65 10 90 31 127 32 55 86
101 142 122 53 20 149 14 200 -13z"/>
<path d="M3305 2055 c-16 -15 -25 -36 -25 -55 0 -19 9 -40 25 -55 23 -24 31
-25 135 -25 104 0 112 1 135 25 16 15 25 36 25 55 0 19 -9 40 -25 55 -23 24
-31 25 -135 25 -104 0 -112 -1 -135 -25z"/>
<path d="M3003 1908 c-27 -13 -47 -60 -40 -91 4 -12 51 -66 105 -120 l99 -97
192 0 c190 0 192 0 216 25 16 15 25 36 25 55 0 19 -9 40 -25 55 -24 24 -28 25
-181 25 l-158 0 -82 80 c-84 82 -103 91 -151 68z"/>
<path d="M2450 1346 c-230 -65 -368 -288 -319 -518 37 -174 180 -309 357 -340
308 -53 575 235 497 535 -22 84 -58 149 -116 207 -108 108 -278 155 -419 116z
m200 -162 c103 -31 190 -151 190 -263 0 -151 -130 -281 -281 -281 -112 0 -232
87 -263 190 -33 111 -10 206 69 285 78 79 174 102 285 69z"/>
<path d="M2505 975 c-16 -15 -25 -36 -25 -55 0 -19 9 -40 25 -55 49 -50 135
-15 135 55 0 41 -39 80 -80 80 -19 0 -40 -9 -55 -25z"/>
</g>
</svg>
