<svg width="92" height="92" viewBox="0 0 92 92" fill="none" xmlns="http://www.w3.org/2000/svg">
<path d="M82.4213 9.14703C70.3998 -2.87453 50.9363 -2.87453 38.9147 9.14703L9.14703 38.9147C-2.87453 50.9363 -2.87453 70.3998 9.14703 82.4213C21.1686 94.4429 40.6321 94.4429 52.6537 82.4213L82.4213 52.6537C94.4429 40.6321 94.4429 21.1686 82.4213 9.14703ZM44.6393 74.407C37.1974 81.8489 24.6033 81.8489 17.1614 74.407C9.71949 66.965 9.71949 54.371 17.1614 46.9291L28.0381 36.0524L55.5159 63.5303L44.6393 74.407ZM74.407 44.6393L63.5303 55.5159L36.0524 28.0381L46.9291 17.1614C50.9363 13.1542 55.5159 11.4369 60.668 11.4369C65.8201 11.4369 70.3998 13.1542 74.407 17.1614C81.8489 24.6033 81.8489 37.1974 74.407 44.6393Z" fill="white"/>
</svg>
