<svg width="20" height="28" viewBox="0 0 20 28" fill="none" xmlns="http://www.w3.org/2000/svg">
<path fill-rule="evenodd" clip-rule="evenodd" d="M4.85173 16.8539C4.72685 16.9789 4.6567 17.1483 4.6567 17.325C4.6567 17.5018 4.72694 17.6707 4.85196 17.7958C4.97699 17.9208 5.14656 17.991 5.32337 17.991L7.99004 17.989C8.07758 17.989 8.16427 17.9717 8.24513 17.9381C8.326 17.9046 8.39947 17.8555 8.46134 17.7935C8.52322 17.7316 8.57229 17.6581 8.60575 17.5772C8.63921 17.4963 8.65641 17.4096 8.65637 17.322C8.65633 17.2345 8.63904 17.1478 8.60549 17.0669C8.57195 16.9861 8.52281 16.9126 8.46087 16.8507C8.39893 16.7888 8.32542 16.7398 8.24452 16.7063C8.16362 16.6728 8.07692 16.6556 7.98937 16.6557L5.3227 16.6584C5.14601 16.6585 4.97661 16.7288 4.85173 16.8539ZM11.3739 17.0645C11.3404 17.1454 11.3233 17.2321 11.3234 17.3197C11.3234 17.4965 11.3936 17.6654 11.5186 17.7904C11.6437 17.9155 11.8132 17.9857 11.99 17.9857L14.6567 17.9837C14.8335 17.9836 15.003 17.9133 15.128 17.7882C15.253 17.6631 15.3231 17.4935 15.323 17.3167C15.3229 17.1399 15.2526 16.9703 15.1275 16.8454C15.0025 16.7204 14.8328 16.6503 14.656 16.6504L11.9894 16.6524C11.9018 16.6524 11.8151 16.6698 11.7343 16.7034C11.6534 16.7369 11.58 16.7861 11.5182 16.8481C11.4563 16.9101 11.4073 16.9836 11.3739 17.0645Z" fill="#8BB7FE"/>
<path fill-rule="evenodd" clip-rule="evenodd" d="M15.9707 3.46436L3.9707 3.47436L3.9807 15.4744L15.9807 15.4644L15.9707 3.46436ZM12.6427 10.039C12.644 11.4604 11.4714 12.579 9.97804 12.5804C8.4847 12.5817 7.3107 11.465 7.30937 10.043C7.30804 8.62102 9.97204 5.46969 9.97204 5.46969C9.97204 5.46969 12.6414 8.71836 12.6427 10.039Z" fill="#8BB7FE"/>
<path fill-rule="evenodd" clip-rule="evenodd" d="M2.63605 2.14221L17.3027 2.13021C17.3903 2.13012 17.477 2.14728 17.5579 2.1807C17.6388 2.21412 17.7124 2.26316 17.7743 2.325C17.8363 2.38684 17.8855 2.46029 17.9191 2.54114C17.9526 2.62199 17.97 2.70866 17.9701 2.79621L17.9834 19.4629C17.9834 19.6396 17.9132 19.809 17.7884 19.934C17.6635 20.059 17.4941 20.1294 17.3174 20.1295L13.3174 20.1329L13.3187 21.4662L17.3187 21.4635C17.5814 21.4633 17.8414 21.4113 18.0839 21.3105C18.3265 21.2098 18.5468 21.0622 18.7323 20.8763C18.9179 20.6904 19.065 20.4698 19.1652 20.2271C19.2655 19.9843 19.317 19.7242 19.3167 19.4615L19.3034 2.79488C19.3029 2.26456 19.0917 1.75616 18.7164 1.38148C18.3411 1.0068 17.8324 0.796522 17.3021 0.796875L2.63539 0.808875C2.37274 0.80905 2.1127 0.860955 1.87012 0.961626C1.62754 1.0623 1.40716 1.20976 1.22156 1.3956C1.03597 1.58145 0.888798 1.80202 0.78845 2.04474C0.688102 2.28746 0.636544 2.54757 0.636719 2.81021L0.650053 19.4769C0.650228 19.7396 0.702154 19.9997 0.802867 20.2423C0.90358 20.4849 1.05111 20.7053 1.23702 20.8909C1.42293 21.0765 1.64358 21.2237 1.88638 21.324C2.12917 21.4243 2.38935 21.4758 2.65205 21.4755L6.65205 21.4722L6.65072 20.1389L2.65072 20.1422C2.47391 20.1422 2.30434 20.072 2.17931 19.9469C2.05429 19.8219 1.98405 19.6524 1.98405 19.4755L1.97072 2.80888C1.97072 2.6323 2.04077 2.46293 2.16551 2.33794C2.29025 2.21296 2.45947 2.14256 2.63605 2.14221Z" fill="#3B7AFD"/>
<path fill-rule="evenodd" clip-rule="evenodd" d="M12.6507 20.1335L7.3174 20.1382L7.32273 26.1382L12.6561 26.1335L12.6507 20.1335ZM5.9834 18.8055L5.99007 27.4722L13.9901 27.4655L13.9834 18.7988L5.9834 18.8055Z" fill="#3B7AFD"/>
<path d="M11.32 23.4681C11.3201 23.6432 11.2858 23.8166 11.2189 23.9784C11.152 24.1402 11.0539 24.2873 10.9302 24.4112C10.8065 24.5351 10.6595 24.6334 10.4978 24.7005C10.3361 24.7677 10.1628 24.8023 9.98765 24.8024C9.81256 24.8025 9.63915 24.7682 9.47733 24.7013C9.31552 24.6344 9.16846 24.5363 9.04455 24.4126C8.92065 24.2889 8.82232 24.142 8.7552 23.9802C8.68807 23.8185 8.65345 23.6452 8.65332 23.4701C8.65306 23.1165 8.79328 22.7772 9.04314 22.527C9.293 22.2767 9.63203 22.136 9.98565 22.1357C10.3393 22.1355 10.6785 22.2757 10.9288 22.5256C11.179 22.7754 11.3197 23.1145 11.32 23.4681Z" fill="#3B7AFD"/>
</svg>
