<svg width="101" height="101" viewBox="0 0 101 101" fill="none" xmlns="http://www.w3.org/2000/svg">
<path fill-rule="evenodd" clip-rule="evenodd" d="M50.6179 99.6655C77.9189 99.6655 100.051 77.5336 100.051 50.2326C100.051 22.9316 77.9189 0.799805 50.6179 0.799805C23.3169 0.799805 1.18506 22.9316 1.18506 50.2326C1.18506 77.5336 23.3169 99.6655 50.6179 99.6655Z" stroke="#4889FD" stroke-opacity="0.2" stroke-width="1.23582"/>
<path fill-rule="evenodd" clip-rule="evenodd" d="M50.6178 89.7787C72.4586 89.7787 90.1641 72.0732 90.1641 50.2324C90.1641 28.3916 72.4586 10.6862 50.6178 10.6862C28.777 10.6862 11.0715 28.3916 11.0715 50.2324C11.0715 72.0732 28.777 89.7787 50.6178 89.7787Z" stroke="#4889FD" stroke-opacity="0.501202" stroke-width="1.23582"/>
<path fill-rule="evenodd" clip-rule="evenodd" d="M50.618 79.892C66.9986 79.892 80.2777 66.6129 80.2777 50.2323C80.2777 33.8517 66.9986 20.5726 50.618 20.5726C34.2374 20.5726 20.9583 33.8517 20.9583 50.2323C20.9583 66.6129 34.2374 79.892 50.618 79.892Z" stroke="#4889FD" stroke-width="1.23582"/>
<path fill-rule="evenodd" clip-rule="evenodd" d="M63.869 42.3461C64.3263 42.8033 64.3263 43.5451 63.869 44.0023C60.834 47.0374 50.34 57.5313 47.3053 60.566C47.0857 60.7857 46.7877 60.9094 46.477 60.9094C46.1663 60.9094 45.8684 60.7857 45.6487 60.566C43.7774 58.6947 39.2386 54.1559 37.3669 52.2846C36.9096 51.8269 36.9096 51.0852 37.3669 50.628C37.8728 50.1224 38.5175 49.4773 39.0235 48.9714C39.4807 48.5141 40.2224 48.5141 40.6797 48.9717C42.457 50.749 46.477 54.7691 46.477 54.7691C46.477 54.7691 57.4237 43.822 60.5562 40.6899C60.7759 40.4702 61.0738 40.3469 61.3845 40.3466C61.6952 40.3466 61.9932 40.4702 62.2128 40.6899L63.869 42.3461Z" fill="#8ECF90"/>
</svg>
