<svg width="18" height="20" viewBox="0 0 18 20" fill="none" xmlns="http://www.w3.org/2000/svg">
<path d="M5.25639 9.01095C4.26062 9.01095 3.30563 8.61538 2.60151 7.91126C1.89739 7.20715 1.50183 6.25216 1.50183 5.25639V2.25274C1.50183 2.05358 1.58094 1.86259 1.72176 1.72176C1.86259 1.58094 2.05358 1.50183 2.25274 1.50183H3.00365C3.2028 1.50183 3.3938 1.42271 3.53463 1.28189C3.67545 1.14106 3.75456 0.950067 3.75456 0.750913C3.75456 0.551758 3.67545 0.360761 3.53463 0.219937C3.3938 0.0791137 3.2028 0 3.00365 0L2.25274 0C1.65527 0 1.08228 0.237341 0.659812 0.659812C0.237341 1.08228 0 1.65527 0 2.25274L0 5.25639C0.000965238 6.10472 0.207832 6.94014 0.602832 7.69091C0.997833 8.44167 1.56916 9.08534 2.26776 9.56663C2.93894 10.1584 3.48327 10.88 3.86786 11.6879C4.25246 12.4958 4.46937 13.3733 4.50548 14.2673C4.50548 15.6614 5.05927 16.9984 6.04504 17.9842C7.0308 18.9699 8.36778 19.5237 9.76186 19.5237C11.1559 19.5237 12.4929 18.9699 13.4787 17.9842C14.4645 16.9984 15.0183 15.6614 15.0183 14.2673V13.4113C15.7261 13.2285 16.343 12.7939 16.7533 12.1888C17.1636 11.5837 17.3392 10.8498 17.247 10.1246C17.1549 9.39931 16.8015 8.73256 16.2529 8.24928C15.7044 7.766 14.9984 7.49938 14.2673 7.49938C13.5363 7.49938 12.8303 7.766 12.2818 8.24928C11.7332 8.73256 11.3797 9.39931 11.2876 10.1246C11.1955 10.8498 11.3711 11.5837 11.7814 12.1888C12.1917 12.7939 12.8086 13.2285 13.5164 13.4113V14.2673C13.5164 15.2631 13.1209 16.2181 12.4167 16.9222C11.7126 17.6263 10.7576 18.0219 9.76186 18.0219C8.76609 18.0219 7.8111 17.6263 7.10699 16.9222C6.40287 16.2181 6.0073 15.2631 6.0073 14.2673C6.04531 13.3722 6.26456 12.494 6.65177 11.686C7.03898 10.8781 7.58611 10.157 8.26004 9.56663C8.95586 9.08366 9.52426 8.43927 9.91659 7.68861C10.3089 6.93795 10.5135 6.10339 10.5128 5.25639V2.25274C10.5128 1.65527 10.2754 1.08228 9.85296 0.659812C9.43049 0.237341 8.8575 0 8.26004 0L7.50913 0C7.30997 0 7.11897 0.0791137 6.97815 0.219937C6.83733 0.360761 6.75821 0.551758 6.75821 0.750913C6.75821 0.950067 6.83733 1.14106 6.97815 1.28189C7.11897 1.42271 7.30997 1.50183 7.50913 1.50183H8.26004C8.45919 1.50183 8.65019 1.58094 8.79101 1.72176C8.93184 1.86259 9.01095 2.05358 9.01095 2.25274V5.25639C9.01095 5.74944 8.91384 6.23767 8.72515 6.6932C8.53647 7.14872 8.25991 7.56262 7.91126 7.91126C7.56262 8.25991 7.14872 8.53647 6.6932 8.72515C6.23767 8.91384 5.74944 9.01095 5.25639 9.01095ZM14.2673 12.0146C13.869 12.0146 13.487 11.8564 13.2054 11.5747C12.9237 11.2931 12.7655 10.9111 12.7655 10.5128C12.7655 10.1145 12.9237 9.73247 13.2054 9.45083C13.487 9.16918 13.869 9.01095 14.2673 9.01095C14.6656 9.01095 15.0476 9.16918 15.3293 9.45083C15.6109 9.73247 15.7692 10.1145 15.7692 10.5128C15.7692 10.9111 15.6109 11.2931 15.3293 11.5747C15.0476 11.8564 14.6656 12.0146 14.2673 12.0146Z" fill="#F7C480"/>
</svg>
