<svg width="53" height="70" viewBox="0 0 53 70" fill="none" xmlns="http://www.w3.org/2000/svg">
<path fill-rule="evenodd" clip-rule="evenodd" d="M12.2613 0.330787C9.67591 1.37713 7.69838 4.40111 7.69838 7.30843C7.69838 9.5479 8.98643 12.0288 10.8557 13.3891C12.0467 14.2559 12.5804 14.4176 14.5797 14.5197C17.3843 14.6626 18.9023 14.0233 20.6508 11.963C23.7037 8.36579 22.5265 2.83662 18.2334 0.609139C16.9438 -0.0596888 13.6104 -0.215228 12.2613 0.330787ZM37.619 6.95717C32.9947 8.4118 31.5736 14.4073 34.9892 18.0528C36.5359 19.7035 39.4773 20.4624 41.5962 19.7569C43.1124 19.2524 45.2521 17.3292 45.8202 15.9604C46.4081 14.5437 46.3654 11.8496 45.735 10.5871C44.846 8.80714 43.3209 7.45684 41.6251 6.94907C39.7311 6.38167 39.4461 6.38231 37.619 6.95717ZM7.3771 16.858C5.39796 17.103 3.99265 17.9228 3.02557 19.3966C2.2956 20.5094 2.0964 21.5748 1.10491 29.6762C0.496389 34.6471 -0.000641954 39.2974 6.22355e-07 40.0103C0.00257093 42.2848 1.51969 44.7002 3.72887 45.9472C4.11409 46.1646 4.49964 48.5486 5.47346 56.7281C6.1607 62.5042 6.72585 67.4012 6.72906 67.6102C6.73195 67.8195 7.10882 68.4391 7.56633 68.9874L8.39815 69.9844H13.9719H19.5456L19.4138 68.9313C19.3415 68.3519 19.1954 66.9002 19.0887 65.7051C18.9332 63.9562 18.7761 63.4938 18.2851 63.3363C17.267 63.0107 16.3732 61.5722 16.3732 60.2599C16.3732 59.1717 17.1555 57.1254 19.3171 52.5583C20.3224 50.4342 21.0119 50.2177 26.7745 50.2177C31.5939 50.2177 31.7744 50.2424 32.6898 51.0191C33.7748 51.9397 36.9362 58.766 36.9343 60.1834C36.9327 61.3182 35.8879 63.0599 35.0474 63.3289C34.3656 63.5473 34.1899 64.314 33.9479 68.129L33.8291 70L38.9626 69.9112C45.4369 69.7991 45.0905 70.1273 45.8639 63.3743L46.4136 58.5722L48.4216 57.7631C49.7399 57.232 50.431 56.7712 50.4336 56.4212C50.4355 56.1283 50.1942 54.2466 49.8973 52.2401L49.3572 48.5914L50.7385 47.3989C52.3227 46.0314 53 44.6448 53 42.7696C53 40.0256 51.0687 25.8425 50.5428 24.7248C50.2485 24.0998 49.4266 23.2002 48.7163 22.7261L47.4244 21.8639H39.69C32.1934 21.8639 31.9193 21.8865 30.7752 22.604C30.1262 23.0113 29.2973 23.8133 28.9333 24.3862L28.2717 25.4283L28.2663 24.3911C28.2502 21.3402 26.9166 18.5486 24.9236 17.3959C24.1862 16.9695 9.99174 16.5343 7.3771 16.858ZM29.2218 37.533C33.805 40.0123 33.2922 46.6523 28.3916 48.2835C24.77 49.489 20.8731 46.6818 20.8718 42.8668C20.8706 39.4267 23.267 36.9744 26.6595 36.9446C27.4814 36.9374 28.5921 37.1924 29.2218 37.533Z" fill="#E8899E"/>
</svg>
