<svg width="28" height="26" viewBox="0 0 28 26" fill="none" xmlns="http://www.w3.org/2000/svg">
<path d="M1.20801 11.9948H9.19734L11.48 8.5708L16.0453 15.4188L18.328 11.9948H26.3173" stroke="#102A43" stroke-width="2.28267" stroke-miterlimit="10" stroke-linecap="round" stroke-linejoin="round"/>
<path d="M5.77344 15.647C8.16687 18.8458 10.8406 21.8251 13.7628 24.5494C16.685 21.8251 19.3587 18.8458 21.7521 15.647" stroke="#102A43" stroke-width="2.28267" stroke-miterlimit="10" stroke-linecap="round" stroke-linejoin="round"/>
<path d="M25.1758 7.91895C25.167 6.27315 24.5073 4.69769 23.3408 3.53669C22.1742 2.3757 20.5956 1.72354 18.9498 1.72266C17.9235 1.72981 16.9144 1.98756 16.0104 2.4735C15.1063 2.95944 14.3346 3.65885 13.7625 4.51093C13.1903 3.65885 12.4186 2.95944 11.5146 2.4735C10.6105 1.98756 9.60144 1.72981 8.57509 1.72266C6.92927 1.72354 5.35067 2.3757 4.18412 3.53669C3.01756 4.69769 2.35787 6.27315 2.34912 7.91895" stroke="#102A43" stroke-width="2.28267" stroke-miterlimit="10" stroke-linecap="round" stroke-linejoin="round"/>
</svg>
