<svg width="49" height="49" viewBox="0 0 49 49" fill="none" xmlns="http://www.w3.org/2000/svg">
<g clip-path="url(#clip0_47_12300)">
<path d="M22.2697 0.226562H39.7139C40.6052 0.257459 41.4965 0.568294 42.1566 1.17873C42.7736 1.73299 43.2014 2.49978 43.3269 3.32087C43.4261 3.97063 43.3793 4.62881 43.3896 5.28231C43.3821 6.31593 43.4046 7.34955 43.3793 8.38224C43.3493 9.28572 42.5629 10.0843 41.6566 10.1143C40.5846 10.1396 39.5107 10.1171 38.4387 10.1246C33.4888 10.1246 28.5397 10.1246 23.5907 10.1246C22.6386 10.1246 21.6864 10.1237 20.7352 10.1255C20.3653 10.1302 19.9824 10.0946 19.651 9.91956C19.0443 9.61528 18.6426 8.95616 18.6473 8.27738C18.6361 6.99846 18.6483 5.71954 18.6417 4.44062C18.6286 3.70379 18.6923 2.94075 19.0387 2.27695C19.6248 1.05702 20.9252 0.263076 22.2697 0.226562ZM22.6367 3.54089C22.2519 3.59987 21.9551 3.95377 21.9542 4.34138C21.9251 4.99863 21.9532 5.65681 21.9411 6.315C21.9485 6.64268 21.913 7.00127 22.0974 7.2915C22.2996 7.59391 22.7153 7.71563 23.0533 7.58549C23.3585 7.48625 23.5617 7.17822 23.5729 6.86364C23.602 6.27286 23.572 5.68022 23.5832 5.08757C23.5776 4.74584 23.6179 4.39568 23.5289 4.06051C23.3932 3.71597 23.0065 3.4791 22.6367 3.54089ZM26.0081 3.54276C25.7301 3.56897 25.4548 3.73095 25.3378 3.99122C25.202 4.27397 25.2469 4.59791 25.2376 4.90126C25.2535 5.52667 25.2273 6.15303 25.247 6.77844C25.2413 7.11175 25.437 7.42632 25.7329 7.57519C26.0896 7.72405 26.5455 7.6014 26.7524 7.2681C26.935 6.98442 26.8844 6.63332 26.8929 6.31406C26.8816 5.63528 26.9172 4.95369 26.8742 4.27584C26.8414 3.84611 26.4379 3.49969 26.0081 3.54276ZM29.2859 3.54089C28.8899 3.58115 28.5463 3.93599 28.5435 4.33764C28.5332 5.12128 28.5407 5.90492 28.5388 6.68856C28.5294 6.97224 28.6072 7.28402 28.8525 7.45535C29.1989 7.75776 29.7943 7.6735 30.0406 7.28589C30.2287 6.99846 30.1847 6.63987 30.1932 6.31406C30.1782 5.62872 30.2184 4.94152 30.1698 4.25712C30.1482 3.81708 29.7063 3.50437 29.2859 3.54089ZM32.5637 3.53995C32.3578 3.57366 32.164 3.67758 32.032 3.84049C31.811 4.07642 31.8503 4.42752 31.8391 4.72524C31.855 5.44054 31.8222 6.15583 31.8559 6.87019C31.8597 7.27746 32.222 7.63043 32.6274 7.63324C33.0553 7.6735 33.4691 7.30087 33.4766 6.87113C33.515 6.34402 33.4794 5.8141 33.4897 5.28606C33.4831 4.91156 33.5262 4.53238 33.4541 4.16256C33.3755 3.76559 32.9607 3.48565 32.5637 3.53995ZM35.8425 3.5465C35.4109 3.59332 35.1188 4.02774 35.1412 4.44343C35.1338 5.19056 35.1375 5.93769 35.1384 6.68482C35.1178 7.0331 35.2779 7.3973 35.5991 7.5574C36.0943 7.8233 36.7797 7.44037 36.7713 6.86551C36.789 6.0285 36.7881 5.18869 36.7741 4.35074C36.7947 3.87138 36.3097 3.46411 35.8425 3.5465ZM39.213 3.54182C38.7917 3.5568 38.4621 3.92569 38.4471 4.33764C38.4247 5.15217 38.4368 5.96858 38.4425 6.78406C38.4265 7.13796 38.6709 7.46752 38.9911 7.59953C39.478 7.78023 40.0678 7.39168 40.0809 6.86926C40.0987 6.02663 40.0921 5.18213 40.0828 4.33857C40.0846 3.88543 39.6652 3.49688 39.213 3.54182Z" fill="#BDC3C7"/>
<path d="M22.6366 3.54106C23.0065 3.47927 23.3931 3.71614 23.5289 4.06068C23.6178 4.39586 23.5776 4.74601 23.5832 5.08775C23.572 5.68039 23.6019 6.27304 23.5729 6.86381C23.5617 7.17839 23.3585 7.48642 23.0533 7.58566C22.7153 7.7158 22.2996 7.59409 22.0974 7.29168C21.9129 7.00144 21.9485 6.64286 21.941 6.31517C21.9532 5.65699 21.9251 4.9988 21.9541 4.34155C21.9551 3.95395 22.2518 3.60004 22.6366 3.54106Z" fill="#A5A5A4"/>
<path d="M26.0079 3.54269C26.4376 3.49962 26.8412 3.84603 26.8739 4.27577C26.917 4.95362 26.8814 5.63521 26.8926 6.31399C26.8842 6.63325 26.9348 6.98434 26.7522 7.26803C26.5453 7.60133 26.0893 7.72398 25.7326 7.57512C25.4368 7.42625 25.2411 7.11167 25.2467 6.77837C25.2271 6.15295 25.2533 5.5266 25.2374 4.90119C25.2467 4.59784 25.2018 4.2739 25.3375 3.99115C25.4546 3.73087 25.7298 3.5689 26.0079 3.54269Z" fill="#A5A5A4"/>
<path d="M29.2861 3.54098C29.7065 3.50447 30.1484 3.81718 30.1699 4.25721C30.2186 4.94161 30.1784 5.62882 30.1933 6.31415C30.1849 6.63997 30.2289 6.99855 30.0407 7.28598C29.7945 7.67359 29.199 7.75785 28.8526 7.45544C28.6073 7.28411 28.5296 6.97234 28.539 6.68865C28.5409 5.90501 28.5334 5.12137 28.5437 4.33773C28.5465 3.93608 28.8901 3.58124 29.2861 3.54098Z" fill="#A5A5A4"/>
<path d="M32.5635 3.53994C32.9605 3.48564 33.3753 3.76558 33.4539 4.16255C33.526 4.53237 33.4829 4.91155 33.4895 5.28605C33.4792 5.81409 33.5148 6.34401 33.4764 6.87112C33.4689 7.30086 33.0551 7.67348 32.6272 7.63323C32.2218 7.63042 31.8595 7.27745 31.8557 6.87018C31.822 6.15582 31.8548 5.44053 31.8389 4.72523C31.8501 4.42751 31.8108 4.07641 32.0317 3.84048C32.1637 3.67757 32.3575 3.57365 32.5635 3.53994Z" fill="#A5A5A4"/>
<path d="M35.8425 3.54679C36.3097 3.4644 36.7947 3.87167 36.7741 4.35103C36.7882 5.18898 36.7891 6.02879 36.7713 6.8658C36.7797 7.44066 36.0944 7.82358 35.5991 7.55769C35.278 7.39759 35.1179 7.03339 35.1385 6.6851C35.1375 5.93798 35.1338 5.19085 35.1413 4.44372C35.1188 4.02803 35.4109 3.59361 35.8425 3.54679Z" fill="#A5A5A4"/>
<path d="M39.213 3.54212C39.6652 3.49718 40.0846 3.88573 40.0828 4.33887C40.0921 5.18243 40.0987 6.02693 40.0809 6.86955C40.0678 7.39198 39.4779 7.78053 38.9911 7.59983C38.6709 7.46782 38.4265 7.13826 38.4425 6.78436C38.4368 5.96888 38.4247 5.15247 38.4471 4.33793C38.4621 3.92598 38.7917 3.5571 39.213 3.54212Z" fill="#A5A5A4"/>
<path d="M23.5909 10.1245C28.5399 10.1245 33.4889 10.1245 38.4389 10.1245C38.4632 10.8735 38.7057 11.6225 39.1888 12.203C39.7927 12.9613 40.7458 13.3986 41.7092 13.422C42.5022 13.4398 43.2971 13.7057 43.8944 14.2375C44.6612 14.8853 45.0619 15.8946 45.0394 16.8899C45.0385 26.1587 45.0432 35.4276 45.0366 44.6974C45.0516 45.8209 44.4739 46.9341 43.519 47.5352C42.9301 47.9247 42.2176 48.0792 41.5182 48.0689C35.4429 48.067 29.3676 48.0726 23.2922 48.066C24.0581 47.8442 24.8239 47.4996 25.3201 46.848C26.2807 45.7161 26.3023 43.9306 25.3791 42.7687C24.7584 41.9411 23.7304 41.4617 22.7005 41.472C20.7981 41.473 18.8956 41.4636 16.9931 41.443C16.9941 40.8616 17.0025 40.2793 16.9585 39.6988C16.9594 39.563 16.9613 39.4282 16.9632 39.2934C17.025 37.7561 16.9791 36.2169 16.9931 34.6786C16.9931 29.0002 16.9931 23.3219 16.9931 17.6435C16.9931 17.0312 16.9632 16.4058 17.1392 15.8113C17.4294 14.8011 18.2346 13.9547 19.2308 13.6186C19.9601 13.3443 20.7793 13.5025 21.4984 13.187C22.7417 12.7207 23.59 11.4456 23.5909 10.1245ZM21.5237 22.5551C20.9619 22.6974 20.4975 23.1609 20.3533 23.7226C20.2728 24.0297 20.2962 24.3508 20.2925 24.6663C20.2934 27.6923 20.2944 30.7192 20.2915 33.7452C20.2841 34.1346 20.3112 34.5447 20.5265 34.8827C20.829 35.4154 21.4413 35.7206 22.047 35.6954C28.0418 35.6954 34.0357 35.6982 40.0305 35.6944C40.6756 35.7141 41.3132 35.3359 41.58 34.7441C41.7963 34.2873 41.7298 33.7667 41.7401 33.278C41.7354 30.2202 41.7485 27.1633 41.7335 24.1065C41.7345 23.2507 40.9714 22.4942 40.1166 22.5027C34.1574 22.4905 28.1982 22.5027 22.2389 22.4961C22.0002 22.4971 21.7577 22.4961 21.5237 22.5551Z" fill="#F29C1F"/>
<path d="M21.5237 22.5551C21.7578 22.4961 22.0003 22.497 22.239 22.4961C28.1982 22.5026 34.1575 22.4905 40.1167 22.5026C40.9715 22.4942 41.7345 23.2507 41.7336 24.1064C41.7486 27.1633 41.7355 30.2202 41.7401 33.2779C41.7299 33.7667 41.7963 34.2872 41.5801 34.7441C41.3132 35.3358 40.6756 35.7141 40.0306 35.6944C34.0357 35.6982 28.0419 35.6953 22.0471 35.6953C21.4413 35.7206 20.829 35.4154 20.5266 34.8827C20.3113 34.5447 20.2841 34.1346 20.2916 33.7451C20.2944 30.7192 20.2935 27.6923 20.2925 24.6663C20.2963 24.3508 20.2729 24.0297 20.3534 23.7226C20.4976 23.1608 20.962 22.6974 21.5237 22.5551ZM23.5657 24.9818C23.1078 24.9875 22.7193 25.4256 22.7839 25.8825C22.8139 26.2682 23.1546 26.5931 23.5404 26.6109C23.9795 26.6418 24.4205 26.6128 24.8596 26.625C25.147 26.6193 25.4662 26.6446 25.7115 26.4639C26.0598 26.2308 26.1609 25.7149 25.9325 25.3638C25.7733 25.0867 25.4447 24.9687 25.1386 24.9743C24.6143 24.9743 24.089 24.9612 23.5657 24.9818ZM28.4501 24.9893C27.981 25.023 27.6252 25.5239 27.7479 25.978C27.8293 26.4096 28.2816 26.6596 28.6982 26.6231C31.9442 26.6184 35.1901 26.6324 38.4352 26.6156C38.9923 26.6343 39.4239 26.0052 39.1954 25.494C39.0587 25.1045 38.6243 24.9444 38.2404 24.9715C34.9767 24.9846 31.712 24.95 28.4501 24.9893ZM23.2792 28.3439C22.9271 28.4834 22.7118 28.8888 22.7951 29.2586C22.8616 29.6519 23.2483 29.9318 23.6406 29.9159C26.8556 29.9262 30.0707 29.9159 33.2858 29.9215C33.5461 29.9206 33.8316 29.8962 34.0311 29.7071C34.3897 29.4056 34.3925 28.7971 34.0376 28.4928C33.8373 28.2971 33.5452 28.2709 33.2802 28.2709C30.2533 28.2737 27.2264 28.2728 24.1986 28.2718C23.8924 28.2784 23.5741 28.24 23.2792 28.3439ZM36.4784 28.343C36.1301 28.4815 35.9082 28.8832 35.9916 29.2521C36.0534 29.6125 36.3857 29.8981 36.7509 29.9093C37.1844 29.9383 37.6197 29.9093 38.0551 29.9224C38.3715 29.9196 38.7357 29.9412 38.9829 29.7043C39.3387 29.4066 39.3405 28.8045 38.996 28.4984C38.6945 28.21 38.2442 28.2812 37.8641 28.2718C37.4034 28.2962 36.9269 28.211 36.4784 28.343ZM23.2979 31.6348C23.0095 31.7453 22.7951 32.029 22.7811 32.3398C22.7418 32.7405 23.0498 33.1403 23.4505 33.1965C23.8859 33.2499 24.325 33.2059 24.7622 33.2218C25.1086 33.2162 25.5149 33.263 25.7874 33.0027C26.1413 32.7003 26.1432 32.0917 25.7883 31.7902C25.4897 31.5084 25.0487 31.5787 24.6742 31.5693C24.2164 31.5936 23.7445 31.5122 23.2979 31.6348ZM28.2581 31.6301C27.9951 31.7285 27.7825 31.9709 27.7395 32.2518C27.6281 32.7583 28.0896 33.2545 28.5999 33.2171C31.8131 33.2255 35.0282 33.2162 38.2414 33.2218C38.4857 33.2162 38.7535 33.2021 38.9482 33.0355C39.3368 32.7443 39.3565 32.0983 38.9829 31.7865C38.761 31.5712 38.4333 31.5684 38.1449 31.5684C35.1508 31.573 32.1567 31.5693 29.1635 31.5693C28.862 31.5749 28.5512 31.5412 28.2581 31.6301Z" fill="#F5EFCA"/>
<path d="M23.5657 24.9818C24.089 24.9612 24.6143 24.9743 25.1386 24.9743C25.4447 24.9687 25.7734 25.0867 25.9325 25.3638C26.161 25.7149 26.0598 26.2308 25.7116 26.4639C25.4663 26.6446 25.147 26.6193 24.8596 26.6249C24.4205 26.6128 23.9795 26.6418 23.5404 26.6109C23.1547 26.5931 22.8139 26.2682 22.7839 25.8825C22.7193 25.4256 23.1079 24.9874 23.5657 24.9818Z" fill="#7F6E5D"/>
<path d="M28.4502 24.9895C31.7121 24.9502 34.9768 24.9848 38.2406 24.9717C38.6245 24.9445 39.0589 25.1046 39.1956 25.4941C39.424 26.0053 38.9924 26.6345 38.4353 26.6157C35.1903 26.6326 31.9443 26.6186 28.6983 26.6232C28.2817 26.6597 27.8295 26.4098 27.748 25.9782C27.6254 25.5241 27.9812 25.0232 28.4502 24.9895Z" fill="#7F6E5D"/>
<path d="M23.2793 28.3438C23.5742 28.2399 23.8925 28.2783 24.1987 28.2717C27.2265 28.2727 30.2534 28.2736 33.2803 28.2708C33.5453 28.2708 33.8374 28.297 34.0377 28.4927C34.3926 28.797 34.3898 29.4056 34.0312 29.707C33.8318 29.8961 33.5462 29.9205 33.2859 29.9214C30.0708 29.9158 26.8558 29.9261 23.6407 29.9158C23.2484 29.9317 22.8617 29.6518 22.7952 29.2586C22.7119 28.8887 22.9273 28.4833 23.2793 28.3438Z" fill="#7F6E5D"/>
<path d="M36.4785 28.3432C36.927 28.2112 37.4035 28.2964 37.8642 28.272C38.2443 28.2814 38.6946 28.2103 38.9961 28.4986C39.3406 28.8048 39.3388 29.4068 38.983 29.7045C38.7358 29.9414 38.3716 29.9198 38.0552 29.9227C37.6198 29.9096 37.1844 29.9386 36.751 29.9096C36.3858 29.8983 36.0535 29.6128 35.9917 29.2523C35.9083 28.8834 36.1302 28.4818 36.4785 28.3432Z" fill="#7F6E5D"/>
<path d="M23.298 31.6348C23.7446 31.5122 24.2165 31.5936 24.6743 31.5693C25.0488 31.5786 25.4898 31.5084 25.7885 31.7902C26.1433 32.0917 26.1414 32.7003 25.7875 33.0027C25.5151 33.2629 25.1087 33.2161 24.7623 33.2217C24.3251 33.2058 23.886 33.2498 23.4506 33.1965C23.0499 33.1403 22.7419 32.7405 22.7812 32.3398C22.7953 32.029 23.0097 31.7453 23.298 31.6348Z" fill="#7F6E5D"/>
<path d="M28.2581 31.6305C28.5512 31.5416 28.862 31.5753 29.1635 31.5696C32.1566 31.5696 35.1508 31.5734 38.1449 31.5687C38.4333 31.5687 38.761 31.5715 38.9828 31.7868C39.3564 32.0986 39.3368 32.7446 38.9482 33.0358C38.7535 33.2025 38.4857 33.2165 38.2413 33.2221C35.0281 33.2165 31.813 33.2259 28.5998 33.2174C28.0896 33.2549 27.628 32.7587 27.7394 32.2522C27.7825 31.9713 27.995 31.7288 28.2581 31.6305Z" fill="#7F6E5D"/>
<path d="M11.6272 36.9044C12.4324 36.2462 13.5597 36.0112 14.5605 36.293C15.8937 36.6394 16.948 37.9024 16.9629 39.2937C16.9611 39.4285 16.9592 39.5633 16.9582 39.6991C16.9442 40.3413 16.6914 40.9499 16.3179 41.4639C15.6381 41.4826 14.9565 41.4433 14.2778 41.4892C13.2984 41.5538 12.365 42.0903 11.8107 42.8992C10.7256 41.7542 9.55157 40.6934 8.49268 39.524C9.54034 38.6542 10.5758 37.7695 11.6272 36.9044Z" fill="#9FE1FC"/>
<path d="M5.11479 42.3664C6.23548 41.4133 7.36928 40.4742 8.49278 39.5239C9.55168 40.6933 10.7257 41.7541 11.8108 42.8991C11.2706 43.6668 11.1002 44.6621 11.3184 45.5721C11.2997 45.7416 11.1948 45.8811 11.0628 45.9831C10.4589 46.4709 9.87749 46.9849 9.27267 47.4718C8.76523 47.8762 8.13138 48.0878 7.49286 48.1627H7.02848C6.32068 48.0831 5.62411 47.8182 5.08951 47.3388C4.34332 46.689 3.91545 45.6901 3.9735 44.6995C4.01095 43.8082 4.43507 42.944 5.11479 42.3664Z" fill="#C03A2B"/>
<path d="M16.3179 41.4639C16.5416 41.4461 16.7673 41.4414 16.9929 41.4433C18.8954 41.4639 20.7978 41.4732 22.7003 41.4723C23.7302 41.462 24.7582 41.9413 25.3789 42.769C26.302 43.9309 26.2805 45.7163 25.3199 46.8482C24.8237 47.4999 24.0578 47.8444 23.292 48.0663C21.7425 48.0728 20.1921 48.0672 18.6416 48.0691C18.6445 45.8689 18.6435 43.6687 18.6416 41.4685C17.8674 41.4657 17.0921 41.4732 16.3179 41.4639Z" fill="#C03A2B"/>
<path d="M14.2778 41.4891C14.9566 41.4433 15.6382 41.4826 16.3179 41.4639C17.0922 41.4732 17.8674 41.4657 18.6417 41.4685C18.6436 43.6687 18.6445 45.8689 18.6417 48.0691C17.2149 48.0616 15.788 48.085 14.3621 48.0579C12.9427 48.0139 11.6545 46.9456 11.3184 45.5721C11.1002 44.6621 11.2706 43.6669 11.8108 42.8991C12.3651 42.0902 13.2985 41.5537 14.2778 41.4891Z" fill="#3EC6FF"/>
</g>
<defs>
<clipPath id="clip0_47_12300">
<rect width="47.936" height="47.936" fill="white" transform="translate(0.512207 0.226562)"/>
</clipPath>
</defs>
</svg>
