<svg width="75" height="52" viewBox="0 0 75 52" fill="none" xmlns="http://www.w3.org/2000/svg">
<path fill-rule="evenodd" clip-rule="evenodd" d="M3.47184 3.65047C4.90578 2.68091 6.75313 1.23723 8.82773 1.00021C9.76331 0.893311 65.3429 0.889262 66.3164 0.996057C70.142 1.4156 73.1469 3.98963 74.071 6.36099L74.2485 6.81651V46.2447L74.071 46.7002C73.6636 47.7457 72.912 48.6215 71.7449 49.4107C70.2867 50.3967 68.4434 51.0235 66.3164 51.2568C65.7521 51.3187 64.2717 51.331 57.3506 51.3311L49.0607 51.3313V48.3505L55.8161 48.3319C62.3355 48.3138 62.595 48.3095 63.2452 48.2081C66.5355 47.6947 68.8047 46.2946 69.6267 44.2707L69.8322 43.7646V26.6065C69.8322 10.1772 69.8264 9.43021 69.6954 9.01902C69.0555 7.01057 66.8658 5.525 63.6624 4.92599L62.9458 4.79196L37.9452 4.77662C19.2273 4.76514 12.8035 4.77607 12.3832 4.8201C10.5521 5.01193 8.8677 5.58052 7.61071 6.43114C6.29593 7.32083 5.59629 8.32977 5.41927 9.59111C5.36455 9.98124 5.34793 15.3766 5.36575 26.9608C5.3894 42.3853 5.40168 43.7916 5.51523 44.0936C6.32408 46.2446 8.57301 47.6779 11.9715 48.2081C12.6217 48.3095 12.8812 48.3138 19.4006 48.3319L26.156 48.3505V51.3313L17.8661 51.3311C10.9451 51.331 9.46465 51.3187 8.90034 51.2568C5.07472 50.8372 2.06979 49.0715 1.14574 46.7002L0.968262 46.2447V6.81651L1.14574 6.36099C1.55316 5.31546 2.30475 4.43969 3.47184 3.65047ZM46.8152 18.5344V14.8894H56.0239L55.9846 18.5083L46.8152 18.5344ZM46.8152 25.7208V22.0766H65.1539V25.7208H46.8152ZM46.8152 32.9079V29.2637H65.1539V32.9079H46.8152ZM46.8152 40.0951V36.4509H65.1539V40.0951H46.8152ZM31.1993 48.9782C31.5136 48.516 32.0132 48.2241 32.7644 48.0635C33.0151 48.0099 34.0309 47.9981 37.7206 48.0061L42.3615 48.0161L42.7766 48.1478C43.3608 48.3331 43.7075 48.5575 43.9682 48.9189C44.2635 49.3285 44.3263 49.7071 44.1621 50.089C43.9253 50.6399 43.3922 51.0408 42.6453 51.2297C42.2589 51.3274 42.0665 51.3313 37.6084 51.3313C33.1503 51.3313 32.9578 51.3274 32.5714 51.2297C31.2349 50.8916 30.6032 49.855 31.1993 48.9782Z" fill="#F7C480"/>
<path fill-rule="evenodd" clip-rule="evenodd" d="M22.3041 12.9622C19.2097 13.4558 16.7883 15.8425 16.1098 19.0679C15.9524 19.816 15.9501 21.1978 16.1049 21.9729C16.4212 23.5563 17.1035 24.841 18.2309 25.9758C19.031 26.781 19.6874 27.2332 20.6361 27.6327C21.5426 28.0143 22.3791 28.1796 23.3878 28.1764C28.1309 28.1614 31.6973 23.4229 30.5176 18.7031C30.1635 17.2865 29.4988 16.0946 28.4947 15.0761C27.3784 13.9436 25.9317 13.1968 24.3992 12.9618C23.8489 12.8774 22.8342 12.8776 22.3041 12.9622ZM27.6999 21.311C28.1051 18.9743 26.6274 16.6381 24.4072 16.1054C23.9263 15.99 23.2355 15.9459 22.8218 16.0041C21.0031 16.2603 19.5829 17.5395 19.0925 19.363C18.9359 19.9452 18.9361 21.1412 19.0929 21.7186C19.528 23.3212 20.7087 24.5316 22.2559 24.9611C22.7971 25.1114 23.9138 25.1131 24.4518 24.9645C26.1652 24.4915 27.3866 23.1176 27.6999 21.311Z" fill="#F7C480"/>
<path d="M17.2384 29.0796C15.8033 29.5786 14.6174 29.9989 14.6031 30.0136C14.5789 30.0386 13.0327 39.9189 13.0327 40.0492C13.0327 40.0901 13.5038 40.1912 14.5061 40.3653C15.3165 40.506 15.9848 40.6141 15.9911 40.6054C15.9975 40.5968 16.2579 38.7731 16.5698 36.5528C16.8818 34.3326 17.148 32.4568 17.1614 32.3844C17.1849 32.2581 17.2562 32.2293 18.9503 31.661C19.9207 31.3354 20.7342 31.051 20.7579 31.0291C20.8063 30.9843 19.956 28.1966 19.8894 28.1817C19.8665 28.1766 18.6735 28.5806 17.2384 29.0796Z" fill="#F7C480"/>
<path d="M26.2444 29.6816C26.003 30.4648 25.8196 31.1193 25.8368 31.1361C25.854 31.1529 26.6713 31.4358 27.653 31.7647L29.4378 32.3629L30.0764 36.4755C30.4277 38.7374 30.7214 40.5946 30.7293 40.6026C30.744 40.6174 33.5641 40.2226 33.5868 40.2025C33.5996 40.1912 32.0762 30.3599 32.034 30.1814C32.015 30.1006 31.5694 29.9328 29.3972 29.1886C27.9595 28.696 26.7608 28.285 26.7333 28.2753C26.7052 28.2655 26.4902 28.884 26.2444 29.6816Z" fill="#F7C480"/>
<rect x="3" y="3" width="69" height="46" rx="6" stroke="#F7C480" stroke-width="4"/>
</svg>
