<svg width="25" height="37" viewBox="0 0 25 37" fill="none" xmlns="http://www.w3.org/2000/svg">
<path d="M22.8801 21.4033C22.7296 21.4033 22.5763 21.3793 22.4249 21.3302L17.1408 18.9034C16.7106 18.7592 16.3733 18.4209 16.2315 17.9894L12.8052 9.84579C12.5552 9.09131 13.8161 8.6069 14.5701 8.35701C15.3232 8.10712 16.1367 8.51655 16.3858 9.27296L18.7342 16.3968L23.3352 18.593C24.0883 18.8448 24.4945 19.6627 24.2435 20.4172C24.0423 21.0227 23.4818 21.4033 22.8801 21.4033Z" fill="#FFB74D"/>
<path d="M15.4765 16.195L18.2139 14.8215L16.3848 9.27296C16.1357 8.51655 15.3232 8.10712 14.5701 8.35701C13.8161 8.6069 12.5552 9.09131 12.8052 9.84579L15.4765 16.195Z" fill="#606FC4"/>
<path d="M15.2006 0.234375C17.0527 0.234375 18.5541 1.74045 18.5541 3.5983C18.5541 5.45519 17.0527 6.96223 15.2006 6.96223C13.3486 6.96223 11.8472 5.45519 11.8472 3.5983C11.8472 1.74045 13.3486 0.234375 15.2006 0.234375Z" fill="#FFB74D"/>
<path d="M2.26467 36.7572C1.83255 36.7572 1.39755 36.6111 1.03921 36.3103C0.225752 35.6308 0.116523 34.4197 0.793927 33.6028L5.33358 28.1407L8.09493 18.9053C8.39962 17.8875 9.46986 17.3098 10.4807 17.6155C11.4954 17.9211 13.1089 19.4003 12.8051 20.4181L8.89211 29.6199C8.81737 29.8669 8.69377 30.1005 8.52801 30.2994L3.73733 36.0661C3.35886 36.5208 2.81368 36.7572 2.26467 36.7572Z" fill="#B2AEAD"/>
<path d="M10.8926 23.7818C10.6933 23.7818 10.4921 23.7645 10.289 23.727C8.4666 23.3945 7.25839 21.6433 7.5899 19.8162L9.98525 9.72443C10.3168 7.89637 12.0615 6.67959 13.8839 7.01791C15.7063 7.34853 16.9145 9.10162 16.583 10.9278L14.1876 21.0176C13.8935 22.6438 12.4822 23.7818 10.8926 23.7818Z" fill="#7E8CCF"/>
<path d="M2.7605 22.3404C2.68864 22.3404 2.61678 22.3346 2.543 22.325C1.75925 22.2048 1.21886 21.4686 1.33767 20.6805L2.85152 13.4423C2.90805 13.0742 3.10447 12.7426 3.39862 12.5148L9.92545 7.49871C10.8893 6.9624 11.8475 6.9624 13.3891 6.9624C14.1825 6.9624 12.4779 10.3225 11.8475 10.8069L5.60617 14.4524L4.1795 21.1169C4.07123 21.83 3.45803 22.3404 2.7605 22.3404Z" fill="#FFB74D"/>
<path d="M17.8806 27.8514C17.8605 27.8216 17.8404 27.7947 17.8183 27.7649L14.05 21.5195C14.1055 21.3571 14.1563 21.1918 14.1879 21.0178L14.2445 20.7785L7.74734 19.1494L7.58924 19.8164C7.35642 21.0986 7.89297 22.3336 8.85782 23.0766L14.7216 30.0293L17.918 35.9008C18.2878 36.4573 18.8943 36.7572 19.5142 36.7572C19.8793 36.7572 20.2491 36.6524 20.5749 36.4342C21.4554 35.8451 21.693 34.6514 21.1066 33.7691L17.8806 27.8514Z" fill="#D2CCC9"/>
<path d="M13.3887 6.9624C11.8471 6.9624 10.8889 6.9624 9.92504 7.49967L5.79834 10.6714L7.7951 13.1741L11.8471 10.8069C12.4775 10.3225 14.183 6.9624 13.3887 6.9624Z" fill="#7E8CCF"/>
</svg>
